HIERARCHY
ROOT Hips
{
    OFFSET 0.000000 0.000000 0.000000
    CHANNELS 6 Xposition Yposition Zposition Zrotation Xrotation Yrotation
    JOINT Spine
    {
        OFFSET -0.000000 0.081317 0.000000
        CHANNELS 3 Zrotation Xrotation Yrotation
        JOINT Spine1
        {
            OFFSET -0.000000 0.225200 0.000000
            CHANNELS 3 Zrotation Xrotation Yrotation
            JOINT Neck
            {
                OFFSET -0.000000 0.224275 0.020389
                CHANNELS 3 Zrotation Xrotation Yrotation
                JOINT Head
                {
                    OFFSET -0.000000 0.138833 -0.019833
                    CHANNELS 3 Zrotation Xrotation Yrotation
                    End Site
                    {
                        OFFSET -0.000000 0.198333 0.000000
                    }
                }
            }
            JOINT LeftShoulder
            {
                OFFSET 0.039732 0.208237 -0.000812
                CHANNELS 3 Zrotation Xrotation Yrotation
                JOINT LeftArm
                {
                    OFFSET 0.110955 0.000000 0.000000
                    CHANNELS 3 Zrotation Xrotation Yrotation
                    JOINT LeftForeArm
                    {
                        OFFSET 0.324523 0.000000 0.000000
                        CHANNELS 3 Zrotation Xrotation Yrotation
                        JOINT LeftHand
                        {
                            OFFSET 0.302601 0.000000 0.000000
                            CHANNELS 3 Zrotation Xrotation Yrotation
                            End Site
                            {
                                OFFSET 0.148750 0.000000 0.000000
                            }
                        }
                    }
                }
            }
            JOINT RightShoulder
            {
                OFFSET -0.039598 0.208237 -0.000812
                CHANNELS 3 Zrotation Xrotation Yrotation
                JOINT RightArm
                {
                    OFFSET -0.110955 0.000000 0.000000
                    CHANNELS 3 Zrotation Xrotation Yrotation
                    JOINT RightForeArm
                    {
                        OFFSET -0.324523 0.000000 0.000000
                        CHANNELS 3 Zrotation Xrotation Yrotation
                        JOINT RightHand
                        {
                            OFFSET -0.302601 0.000000 0.000000
                            CHANNELS 3 Zrotation Xrotation Yrotation
                            End Site
                            {
                                OFFSET -0.148750 0.000000 0.000000
                            }
                        }
                    }
                }
            }
        }
    }
    JOINT LeftUpLeg
    {
        OFFSET 0.099167 0.000000 0.000000
        CHANNELS 3 Zrotation Xrotation Yrotation
        JOINT LeftLeg
        {
            OFFSET -0.000000 -0.380753 0.000000
            CHANNELS 3 Zrotation Xrotation Yrotation
            JOINT LeftFoot
            {
                OFFSET -0.000000 -0.440093 0.000000
                CHANNELS 3 Zrotation Xrotation Yrotation
                JOINT LeftToeBase
                {
                    OFFSET -0.000000 -0.064458 0.148750
                    CHANNELS 3 Zrotation Xrotation Yrotation
                    End Site
                    {
                        OFFSET -0.000000 0.000000 0.039667
                    }
                }
            }
        }
    }
    JOINT RightUpLeg
    {
        OFFSET -0.099167 0.000000 0.000000
        CHANNELS 3 Zrotation Xrotation Yrotation
        JOINT RightLeg
        {
            OFFSET -0.000000 -0.380753 0.000000
            CHANNELS 3 Zrotation Xrotation Yrotation
            JOINT RightFoot
            {
                OFFSET -0.000000 -0.440093 0.000000
                CHANNELS 3 Zrotation Xrotation Yrotation
                JOINT RightToeBase
                {
                    OFFSET -0.000000 -0.064458 0.148750
                    CHANNELS 3 Zrotation Xrotation Yrotation
                    End Site
                    {
                        OFFSET -0.000000 0.000000 0.039667
                    }
                }
            }
        }
    }
}
MOTION
Frames:    4
Frame Time:    0.010000
-0.370669    0.916687    -0.054330    2.086455    -2.678632    9.522779    -3.836941    -13.525233    -2.452181    8.953373    35.579594    -3.543814    -0.306718    20.865389    0.617830    -5.436760    -33.694702    -1.695461    -14.920292    2.428440    -10.322833    -60.205406    2.280123    -20.010305    -1.143321    30.516403    -23.517246    16.184340    28.163332    -17.180689    11.653239    -0.458735    11.216003    55.418423    60.766495    -1.531615    -27.245277    -17.357267    31.017231    16.626686    -11.002175    -7.918705    2.059409    0.195207    31.374180    4.874164    8.208105    33.047787    16.931406    17.820328    -71.063782    0.000000    0.000000    0.000000    0.991607    7.142615    -0.551860    2.336259    3.685103    6.304017    -6.785048    14.880757    -14.328475    0.000000    0.000000    0.000000    
-0.370441    0.916403    -0.054057    1.999003    -2.633098    9.435958    -3.906388    -13.543253    -2.527496    9.112973    35.605824    -3.619833    -0.370220    20.844278    0.672034    -5.583789    -33.700649    -1.704958    -14.981291    2.404805    -10.340083    -60.307022    2.050539    -20.051552    -1.063537    30.635357    -23.048393    16.339304    28.207399    -17.761587    11.631818    -0.511670    11.202905    55.394028    60.631962    -1.487044    -27.314222    -17.406048    31.073679    16.504082    -11.004441    -7.884789    2.017665    0.245443    31.270258    4.914454    7.991793    33.406258    17.506763    17.290695    -71.321373    0.000000    0.000000    0.000000    1.053053    7.035872    -0.470052    2.326671    3.805871    6.333786    -6.790566    14.773991    -14.339231    0.000000    0.000000    0.000000    
-0.370161    0.916230    -0.053776    1.925153    -2.598480    9.356131    -3.961982    -13.538144    -2.604769    9.209114    35.622620    -3.675892    -0.460815    20.805296    0.734602    -5.618200    -33.665241    -1.656883    -15.016429    2.367907    -10.338737    -60.434006    1.748428    -20.092157    -1.242852    30.233189    -22.744089    15.976830    27.891315    -17.179918    11.646200    -0.556320    11.181826    55.350578    60.425560    -1.414779    -27.345217    -17.429411    31.128393    16.384100    -10.991950    -7.848701    2.005212    0.289268    31.225145    4.949879    7.825509    33.526276    17.512173    17.385592    -71.307716    0.000000    0.000000    0.000000    1.182498    6.904070    -0.619324    2.132524    3.929563    6.303449    -5.750737    13.991415    -14.385204    0.000000    0.000000    0.000000    
-0.369850    0.916126    -0.053492    1.867569    -2.573865    9.277075    -4.024133    -13.511836    -2.661829    9.305396    35.630630    -3.724638    -0.511895    20.771246    0.753008    -5.672296    -33.643246    -1.661818    -15.078339    2.469981    -10.355651    -60.497601    1.396222    -20.284136    -1.729681    29.732380    -21.988323    17.292410    27.055628    -17.658895    11.659079    -0.589293    11.127489    55.316650    60.189632    -1.320562    -27.385958    -17.437105    31.141468    16.183798    -10.968573    -7.832213    1.994298    0.363565    31.004978    4.899366    7.696532    33.423916    17.387508    17.454639    -70.843216    0.000000    0.000000    0.000000    1.224395    6.833823    -0.524940    2.104422    4.025695    6.291990    -5.703295    13.919176    -14.407454    0.000000    0.000000    0.000000    
